<svg id="svg" version="1.1" xmlns="http://www.w3.org/2000/svg" xmlns:xlink="http://www.w3.org/1999/xlink" width="200" height="200" viewBox="10, 5, 400,400">
    <g id="svgg">
        <path id="path0" d="M304.000 45.104 C 230.266 76.990,164.269 127.373,126.057 180.949 C 117.737 192.614,117.779 192.754,127.501 185.712 C 142.882 174.572,152.573 170.343,146.307 177.506 C 133.944 191.639,118.859 230.280,113.994 260.280 C 111.819 273.689,111.448 273.630,122.899 261.685 C 136.957 247.021,135.953 247.002,135.953 261.923 C 135.953 290.546,144.916 323.881,160.711 354.000 L 164.067 360.400 163.652 356.000 C 161.839 336.776,161.501 329.941,161.476 312.000 C 161.401 259.375,171.949 220.040,193.191 193.731 C 196.091 190.139,198.217 187.200,197.916 187.200 C 196.781 187.200,180.167 196.403,174.585 200.124 C 167.844 204.617,167.934 204.885,172.187 193.004 C 180.439 169.954,196.841 148.367,217.600 133.238 C 220.460 131.154,222.980 129.257,223.200 129.023 C 225.790 126.263,202.762 130.655,195.014 134.398 C 191.149 136.266,191.218 135.801,195.734 129.560 C 209.856 110.044,255.121 76.022,304.000 48.185 C 321.041 38.480,321.041 37.735,304.000 45.104 " stroke="none" fill="#007dc5" fill-rule="evenodd"/>
    </g>
</svg>
